# AST/ASF file generated using VICON BodyLanguage
# -----------------------------------------------
:version 1.10
:name VICON
:units
  mass 1.0
  length 0.45
  angle deg
:documentation
   .ast/.asf automatically generated from VICON data using
   VICON BodyBuilder and BodyLanguage model FoxedUp or BRILLIANT.MOD
:root
   order TX TY TZ RX RY RZ
   axis XYZ
   position 0 0 0  
   orientation 0 0 0 
:bonedata
  begin
     id 1 
     name lhipjoint
     direction 0.650112 -0.723553 0.232005 
     length 2.45805 
     axis 0 0 0  XYZ
  end
  begin
     id 2 
     name lfemur
     direction 0.34202 -0.939693 0  
     length 7.00073  
     axis 0 0 20  XYZ
    dof rx ry rz
    limits (-160.0 20.0)
           (-70.0 70.0)
           (-60.0 70.0)
  end
  begin
     id 3 
     name ltibia
     direction 0.34202 -0.939693 0   
     length 7.8748   
     axis 0 0 20   XYZ
    dof rx
    limits (-10.0 170.0)
  end
  begin
     id 4 
     name lfoot
     direction 0.0542825 -0.14914 0.987325   
     length 1.75978   
     axis -90 7.62852e-016 20   XYZ
    dof rx rz
    limits (-45.0 90.0)
           (-70.0 20.0)
  end
  begin
     id 5 
     name ltoes
     direction 1.53509e-011 -4.21906e-011 1   
     length 0.893912   
     axis -90 7.62852e-016 20   XYZ
    dof rx
    limits (-90.0 20.0)
  end
  begin
     id 6 
     name rhipjoint
     direction -0.637897 -0.733345 0.235145   
     length 2.42522  
     axis 0 0 0  XYZ 
  end
  begin
     id 7 
     name rfemur
     direction -0.34202 -0.939693 0   
     length 7.02549   
     axis 0 0 -20   XYZ
    dof rx ry rz
    limits (-160.0 20.0)
           (-70.0 70.0)
           (-70.0 60.0)
  end
  begin
     id 8 
     name rtibia
     direction -0.34202 -0.939693 0   
     length 7.71512   
     axis 0 0 -20   XYZ
    dof rx
    limits (-10.0 170.0)
 end
 begin
     id 9 
     name rfoot
     direction -0.0822618 -0.226012 0.970645   
     length 1.90014  
     axis -90 -7.62852e-016 -20   XYZ
    dof rx rz
    limits (-45.0 90.0)
           (-20.0 70.0)
  end
  begin
     id 10 
     name rtoes
     direction -1.53542e-011 -4.21872e-011 1   
     length 0.957341   
     axis -90 -7.62852e-016 -20   XYZ
    dof rx
    limits (-90.0 20.0)
  end
  begin
     id 11 
     name lowerback
     direction -0.0022947 0.999774 -0.0211557   
     length 1.89909   
     axis 0 0 0   XYZ
    dof rx ry rz
    limits (-20.0 45.0)
           (-30.0 30.0)
           (-30.0 30.0)
  end
  begin
     id 12 
     name upperback
     direction 0.0107737 0.998635 0.0511027   
     length 1.8853   
     axis 0 0 0   XYZ
    dof rx ry rz
    limits (-20.0 45.0)
           (-30.0 30.0)
           (-30.0 30.0)
  end
  begin
     id 13 
     name thorax
     direction 0.011824 0.998136 0.0598754   
     length 1.88911   
     axis 0 0 0   XYZ
    dof rx ry rz
    limits (-20.0 45.0)
           (-30.0 30.0)
           (-30.0 30.0)
  end
  begin
     id 14 
     name lowerneck
     direction -0.0685355 0.990319 0.120714   
     length 1.91222   
     axis 0 0 0   XYZ
    dof rx ry rz
    limits (-20.0 45.0)
           (-30.0 30.0)
           (-30.0 30.0)
  end
  begin
     id 15 
     name upperneck
     direction 0.0886204 0.955665 -0.280805   
     length 1.92526   
     axis 0 0 0   XYZ
    dof rx ry rz
    limits (-20.0 45.0)
           (-30.0 30.0)
           (-30.0 30.0)
  end
  begin
     id 16
     name head
     direction 0.0233423 0.993502 -0.111393  
     length 1.96056  
     axis 0 0 0   XYZ
    dof rx ry rz
    limits (-20.0 45.0)
           (-30.0 30.0)
           (-30.0 30.0)
  end
  begin
     id 17 
     name lclavicle
     direction 0.941873 0.32922 0.0670041  
     length 3.31705  
     axis 0 0 0   XYZ
    dof ry rz
    limits (-20.0 10.0)
           (0.0 20.0)
  end
  begin
     id 18 
     name lhumerus
     direction 1 -4.4898e-011 3.38707e-028   
     length 5.29277   
     axis 180 -30 -90   XYZ
    dof rx ry rz
    limits (-60.0 90.0)
           (-90.0 90.0)
           (-90.0 90.0)
  end
  begin
     id 19
     name lradius
     direction 1 -4.48952e-011 1.63213e-028   
     length 2.85226   
     axis 180 -30 -90   XYZ
    dof rx
    limits (-10.0 170.0)
  end
  begin
     id 20
     name lwrist
     direction 1 -4.49001e-011 1.27856e-027   
     length 1.42613   
     axis -1.61767e-015 90 90   XYZ
    dof ry
    limits (-180.0 0.0)
 end
  begin
     id 21 
     name lhand
     direction 1 -4.48976e-011 2.55931e-027   
     length 0.602097   
     axis -1.63363e-015 90 90   XYZ
    dof rx rz
    limits (-90.0 90.0)
           (-45.0 45.0)
  end
  begin
     id 22 
     name lfingers
     direction 1 -4.48986e-011 5.11684e-027   
     length 0.485426   
     axis -3.26723e-015 90 90   XYZ
    dof rx
    limits (0.0 90.0)
  end
  begin
     id 23
     name lthumb
     direction 0.707107 -6.34915e-011 0.707107   
     length 0.696978   
     axis -90 45 -2.25915e-014   XYZ
    dof rx rz
    limits (-45.0 45.0)
           (-45.0 45.0)
  end
  begin
     id 24 
     name rclavicle
     direction -0.939974 0.327078 0.0973096   
     length 3.10337  
     axis 0 0 0   XYZ 
    dof ry rz
    limits (-10.0 20.0)
           (-20.0 0.0)
  end
  begin
     id 25 
     name rhumerus
     direction -1 -4.48975e-011 1.83745e-027  
     length 5.13304   
     axis 180 30 90   XYZ
    dof rx ry rz
    limits (-90.0 60.0)
           (-90.0 90.0)
           (-90.0 90.0)
  end
  begin
     id 26 
     name rradius
     direction -1 -4.48977e-011 7.1775e-029   
     length 2.74305   
     axis 180 30 90   XYZ
    dof rx
    limits (-10.0 170.0)
  end
  begin
     id 27 
     name rwrist
     direction -1 -4.48977e-011 1.27963e-027   
     length 1.37152   
     axis -1.61767e-015 -90 -90   XYZ
    dof ry
    limits (-180.0 0.0)
  end
  begin
     id 28
     name rhand
     direction -1 -4.4888e-011 2.56782e-027   
     length 0.767976   
     axis -1.63363e-015 -90 -90   XYZ
    dof rx rz
    limits (-90.0 90.0)
           (-45.0 45.0)
  end
  begin
     id 29
     name rfingers
     direction -1 -4.48947e-011 5.12384e-027   
     length 0.619162   
     axis -3.26723e-015 -90 -90   XYZ
    dof rx
    limits (0.0 90.0)
  end
  begin
     id 30
     name rthumb
     direction -0.707107 -6.34857e-011 0.707107   
     length 0.888997   
     axis -90 -45 2.25915e-014   XYZ
    dof rx rz
    limits (-45.0 45.0)
           (-45.0 45.0)
  end
:hierarchy
  begin
    root lhipjoint rhipjoint lowerback
    lhipjoint lfemur
    lfemur ltibia
    ltibia lfoot
    lfoot ltoes
    rhipjoint rfemur
    rfemur rtibia
    rtibia rfoot
    rfoot rtoes
    lowerback upperback
    upperback thorax
    thorax lowerneck lclavicle rclavicle
    lowerneck upperneck
    upperneck head
    lclavicle lhumerus
    lhumerus lradius
    lradius lwrist
    lwrist lhand lthumb
    lhand lfingers
    rclavicle rhumerus
    rhumerus rradius
    rradius rwrist
    rwrist rhand rthumb
    rhand rfingers
  end

#!OML:ASF F:\VICON\USERDATA\INSTALL\rory3\rory3.ASF
:FULLY-SPECIFIED
:DEGREES
340
root -0.368497 17.3981 -0.617063 20.8324 22.6085 -2.48009
lowerback 5.45842 -0.685874 -0.612098
upperback -8.32156 -1.03986 -0.729898
thorax -12.0321 -0.469863 -0.287469
lowerneck -12.9388 -2.48344 -13.5228
upperneck 12.346 -4.37482 24.1532
head 6.78181 -0.926644 10.1083
rclavicle 3.93594e-014 1.43125e-014
rhumerus -36.6626 -17.6404 -67.4929
rradius 118.091
rwrist 24.077
rhand 21.8462 4.56378
rfingers 7.12502
rthumb 46.251 -18.4255
lclavicle 3.93594e-014 1.43125e-014
lhumerus 19.5964 -44.9695 86.9966
lradius 97.031
lwrist -12.8805
lhand 27.7353 32.9642
lfingers 7.12502
lthumb 51.6598 53.2698
rfemur -24.9552 1.07928 23.8095
rtibia 17.5703
rfoot -11.7347 -18.8974
rtoes -14.5883
lfemur -37.2537 -21.1759 -2.77795
ltibia 23.1974
lfoot -10.9022 2.50735
ltoes -23.8236
341
root -0.389197 17.3941 -0.614235 20.6926 22.5302 -2.64497
lowerback 5.49333 -0.627074 -0.71216
upperback -8.26329 -0.970133 -0.716598
thorax -11.9844 -0.426868 -0.227709
lowerneck -12.9282 -2.56542 -13.6434
upperneck 12.4122 -4.46219 24.031
head 6.8168 -0.982634 10.0788
rclavicle 4.87022e-015 1.90833e-014
rhumerus -35.7759 -17.7469 -68.3564
rradius 118.064
rwrist 23.8134
rhand 21.7863 4.46799
rfingers 7.12502
rthumb 46.1954 -18.5447
lclavicle 4.87022e-015 1.90833e-014
lhumerus 18.5343 -43.7886 87.2199
lradius 96.8945
lwrist -13.4546
lhand 27.4218 33.1398
lfingers 7.12502
lthumb 51.3748 53.6096
rfemur -24.8631 1.212 24.0447
rtibia 17.5161
rfoot -11.8319 -18.9503
rtoes -13.8668
lfemur -37.1669 -20.9808 -2.63357
ltibia 23.2494
lfoot -10.9043 2.38937
ltoes -23.8042
342
root -0.405091 17.396 -0.600036 20.4748 22.2442 -2.72803
lowerback 5.5148 -0.529422 -0.81726
upperback -8.17621 -0.862812 -0.847764
thorax -11.8984 -0.37376 -0.327495
lowerneck -12.9327 -2.63386 -13.5698
upperneck 12.456 -4.56359 23.9094
head 6.84733 -1.03482 10.0094
rclavicle 1.63997e-014 -2.38542e-015
rhumerus -34.9547 -17.8403 -69.3657
rradius 118.029
rwrist 23.5839
rhand 21.6553 4.2385
rfingers 7.12502
rthumb 46.0739 -18.8252
lclavicle 1.63997e-014 -2.38542e-015
lhumerus 17.4688 -42.7735 87.153
lradius 96.7827
lwrist -13.9567
lhand 27.1897 33.7444
lfingers 7.12502
lthumb 51.1636 54.3341
rfemur -24.6193 1.33007 24.1596
rtibia 17.4772
rfoot -12.0114 -18.8157
rtoes -13.7322
lfemur -36.7582 -20.8647 -2.66552
ltibia 23.1783
lfoot -10.8809 2.55587
ltoes -24.9712
343
root -0.413516 17.4024 -0.580132 20.3506 21.7362 -2.5174
lowerback 5.44976 -0.377779 -0.878733
upperback -8.09581 -0.709674 -1.31851
thorax -11.7734 -0.320944 -0.826421
lowerneck -12.8388 -2.70541 -13.2712
upperneck 12.4238 -4.72906 23.917
head 6.84987 -1.10431 9.9349
rclavicle -5.56597e-014 -1.51076e-014
rhumerus -34.2852 -18.1058 -70.6499
rradius 117.973
rwrist 23.5831
rhand 21.5137 4.09053
rfingers 7.12502
rthumb 45.9425 -19.0279
lclavicle -5.56597e-014 -1.51076e-014
lhumerus 16.572 -42.1023 86.6607
lradius 96.6014
lwrist -14.2962
lhand 27.3229 34.429
lfingers 7.12502
lthumb 51.2848 54.9501
rfemur -24.3315 1.317 23.9378
rtibia 17.4063
rfoot -12.2431 -18.4151
rtoes -13.4266
lfemur -36.2302 -20.9252 -3.01444
ltibia 23.0605
lfoot -10.9337 2.99971
ltoes -26.1745
344
root -0.416108 17.4087 -0.564243 20.3074 21.1919 -2.14694
lowerback 5.29897 -0.193418 -1.17575
upperback -7.98962 -0.525244 -1.70088
thorax -11.561 -0.226887 -1.10085
lowerneck -12.8144 -2.81126 -13.159
upperneck 12.4129 -4.89348 23.8561
head 6.87259 -1.18355 9.87203
rclavicle 4.2043e-014 0
rhumerus -33.6218 -18.2672 -71.6623
rradius 117.985
rwrist 23.7055
rhand 21.4445 4.03121
rfingers 7.12502
rthumb 45.8783 -19.1138
lclavicle 4.2043e-014 0
lhumerus 15.9943 -41.4262 86.3574
lradius 96.2334
lwrist -14.7474
lhand 27.6992 35.0111
lfingers 7.12502
lthumb 51.6271 55.3357
rfemur -24.0691 1.05969 23.5844
rtibia 17.3163
rfoot -12.2786 -17.8914
rtoes -13.4959
lfemur -35.7445 -21.0746 -3.52529
ltibia 22.9531
lfoot -11.0585 3.51249
ltoes -26.6555
345
root -0.421789 17.4102 -0.556542 20.1816 20.7856 -2.15506
lowerback 5.23311 0.00871914 -1.35555
upperback -7.92009 -0.274122 -1.77028
thorax -11.4386 -0.0938521 -1.11178
lowerneck -12.8098 -2.94313 -13.2693
upperneck 12.3799 -5.0326 23.7091
head 6.88792 -1.26835 9.82024
rclavicle 9.49197e-014 -1.59028e-015
rhumerus -33.096 -18.232 -72.2767
rradius 118.068
rwrist 23.8121
rhand 21.4215 4.00734
rfingers 7.12502
rthumb 45.8569 -19.1465
lclavicle 9.49197e-014 -1.59028e-015
lhumerus 15.5948 -40.7287 86.3545
lradius 95.8423
lwrist -15.267
lhand 27.828 35.4179
lfingers 7.12502
lthumb 51.7441 55.6744
rfemur -23.9136 1.01142 23.6015
rtibia 17.2676
rfoot -12.2001 -17.5788
rtoes -13.8391
lfemur -35.399 -21.0057 -3.64314
ltibia 22.9027
lfoot -11.1217 3.78547
ltoes -26.5261
